<svg width="150" height="150" viewBox="0 0 150 150" fill="none" xmlns="http://www.w3.org/2000/svg">
<rect x="2" y="2" width="146" height="146" rx="73" fill="#FAE4F0" fill-opacity="0.72" stroke="#EA8FB0" stroke-width="4"/>
<path d="M80.136 72.16C86.024 73.12 90.536 75.328 93.672 78.784C96.808 82.176 98.376 86.4 98.376 91.456C98.376 95.36 97.352 98.976 95.304 102.304C93.256 105.568 90.12 108.192 85.896 110.176C81.736 112.16 76.616 113.152 70.536 113.152C65.8 113.152 61.128 112.544 56.52 111.328C51.976 110.048 48.104 108.256 44.904 105.952L50.952 94.048C53.512 95.968 56.456 97.472 59.784 98.56C63.176 99.584 66.632 100.096 70.152 100.096C74.056 100.096 77.128 99.36 79.368 97.888C81.608 96.352 82.728 94.208 82.728 91.456C82.728 85.952 78.536 83.2 70.152 83.2H63.048V72.928L76.872 57.28H48.264V44.8H95.304V54.88L80.136 72.16Z" fill="#EA8FB0"/>
</svg>
