<svg width="150" height="150" viewBox="0 0 150 150" fill="none" xmlns="http://www.w3.org/2000/svg">
<rect x="2" y="2" width="146" height="146" rx="73" fill="#FAE4F0" fill-opacity="0.72" stroke="#EA8FB0" stroke-width="4"/>
<path d="M97.952 94.328V107H47.168V96.92L73.088 72.44C75.84 69.816 77.696 67.576 78.656 65.72C79.616 63.8 80.096 61.912 80.096 60.056C80.096 57.368 79.168 55.32 77.312 53.912C75.52 52.44 72.864 51.704 69.344 51.704C66.4 51.704 63.744 52.28 61.376 53.432C59.008 54.52 57.024 56.184 55.424 58.424L44.096 51.128C46.72 47.224 50.336 44.184 54.944 42.008C59.552 39.768 64.832 38.648 70.784 38.648C75.776 38.648 80.128 39.48 83.84 41.144C87.616 42.744 90.528 45.048 92.576 48.056C94.688 51 95.744 54.488 95.744 58.52C95.744 62.168 94.976 65.592 93.44 68.792C91.904 71.992 88.928 75.64 84.512 79.736L69.056 94.328H97.952Z" fill="#EA8FB0"/>
</svg>
